<?xml version="1.0" encoding="UTF-8"?>
<!DOCTYPE svg PUBLIC "-//W3C//DTD SVG 1.1//EN" "http://www.w3.org/Graphics/SVG/1.1/DTD/svg11.dtd">
<svg version="1.1" xmlns="http://www.w3.org/2000/svg" xmlns:xlink="http://www.w3.org/1999/xlink" width="300" height="200"  xml:space="preserve">
    <path id="text" stroke="none" fill="rgb(0, 0, 0)" d="M 119.96,125.39 C 118.02,121.5 115.11,118 111.23,114.87 107.36,111.75 103,109.24 98.15,107.34 93.31,105.44 88.25,104.03 82.97,103.1 67.31,100.56 52.7,95.03 39.13,86.51 37.97,85.83 36.73,84.4 35.41,82.2 34.09,80.01 33.43,77.9 33.43,75.87 33.43,68.44 34.58,60.99 36.86,53.52 39.15,46.04 42.08,40.2 45.64,35.98 51.38,28.97 61.71,22.85 76.64,17.61 91.56,12.38 108.37,9.76 127.05,9.76 138.22,9.76 146.84,10.69 152.93,12.55 159.01,14.41 162.06,17.28 162.06,21.16 162.06,27.49 161.26,32.39 159.67,35.85 158.08,39.31 156.38,41.61 154.56,42.75 152.73,43.89 149.54,45.43 144.96,47.37 140.08,49.23 135.83,51.17 132.23,53.2 128.62,55.23 125.54,57.17 122.98,59.03 120.42,60.88 118.83,61.81 118.21,61.81 117.44,61.81 117.05,61.47 117.05,60.8 117.05,59.36 118.43,57.19 121.18,54.28 123.93,51.36 127.32,48.81 131.35,46.61 135.62,44.17 137.75,42.6 137.75,41.93 137.75,40.83 135.39,40.28 130.66,40.28 116.31,40.28 103.06,41.68 90.88,44.46 78.71,47.25 69.12,50.92 62.1,55.48 55.08,60.04 51.57,64.68 51.57,69.41 51.57,72.37 53.03,74.45 55.94,75.68 58.84,76.9 65.26,78.95 75.18,81.82 85.11,84.69 93.98,87.98 101.81,91.7 113.06,96.93 121.39,102.38 126.82,108.04 132.25,113.69 134.96,120.02 134.96,127.03 134.96,131.84 133.89,136.68 131.76,141.53 129.63,146.39 126.51,150.84 122.4,154.89 118.29,158.95 113.56,162.28 108.21,164.9 103.64,167.01 97.88,168.99 90.94,170.85 84,172.71 76.48,174.16 68.38,175.22 60.28,176.27 52.54,176.8 45.18,176.8 31.61,176.8 20.7,175.41 12.44,172.62 4.18,169.84 0.05,165.62 0.05,159.96 0.05,157.43 1.45,153.48 4.24,148.12 7.03,142.76 10.33,139.15 14.13,137.29 17.46,135.86 20.68,135.03 23.78,134.82 26.88,134.61 28.43,135.01 28.43,136.02 28.43,136.28 28.31,136.53 28.08,136.78 27.85,137.04 27.58,137.25 27.27,137.42 26.96,137.59 26.65,137.75 26.34,137.92 24.79,138.6 23.53,139.13 22.56,139.51 21.59,139.89 20.81,140.27 20.23,140.65 19.65,141.03 19.36,141.55 19.36,142.23 19.36,144 27.38,144.89 43.43,144.89 57.39,144.89 68.82,144.34 77.74,143.24 86.66,142.14 94.53,140.16 101.35,137.29 108.17,134.42 114.37,130.45 119.96,125.39 Z M 228.81,98.92 L 246.37,98.92 C 256.53,84.06 264.26,71.1 269.57,60.04 274.88,48.98 277.54,41.72 277.54,38.26 277.54,33.44 273.74,31.04 266.14,31.04 261.72,31.46 253.89,32.49 242.65,34.14 231.41,35.79 220.52,37.75 209.97,40.03 200.51,41.97 192.93,43.98 187.23,46.04 181.54,48.11 177.52,49.82 175.2,51.17 172.87,52.52 171.44,53.5 170.9,54.09 176.63,53.75 181.48,53.58 185.43,53.58 191.63,53.58 194.74,54.34 194.74,55.86 194.74,56.54 192.57,57.4 188.22,58.46 183.88,59.51 179.77,60.63 175.9,61.81 172.1,62.99 168.39,64.39 164.79,65.99 161.18,67.6 158.99,68.4 158.22,68.4 156.44,68.4 154.96,67.66 153.8,66.18 152.64,64.7 152.05,62.91 152.05,60.8 152.05,59.36 153.12,55.63 155.25,49.59 157.39,43.55 160.39,37.48 164.27,31.35 168.14,25.23 172.95,20.7 178.69,17.74 180.78,16.64 187.47,14.66 198.75,11.79 210.03,8.92 222.76,6.3 236.95,3.94 251.14,1.57 264.13,0.39 275.91,0.39 283.04,0.39 288.76,1.47 293.07,3.62 297.37,5.77 299.52,10.4 299.52,17.49 299.52,19.77 298.74,23.29 297.19,28.06 295.64,32.83 293.18,38.93 289.81,46.36 286.44,53.79 282.33,61.94 277.48,70.8 272.64,79.67 267.11,89.04 260.91,98.92 L 278.82,98.92 263.35,123.11 C 261.26,123.28 258.64,123.4 255.5,123.49 252.36,123.57 248.93,123.7 245.21,123.87 235.67,137.37 225.34,150.08 214.22,161.99 203.09,173.89 193.01,183.43 183.98,190.61 174.95,197.78 168.61,201.37 164.96,201.37 163.49,201.37 162.21,200.84 161.13,199.79 160.04,198.73 159.5,197.36 159.5,195.67 159.5,194.24 161.22,190.56 164.67,184.65 168.12,178.74 172.91,173.21 179.04,168.06 185.16,162.91 192.14,160.04 199.97,159.45 203.15,155.82 205.88,152.59 208.17,149.76 210.46,146.94 213.69,142.84 217.88,137.48 222.07,132.12 225.28,128 227.53,125.13 L 192.53,127.03 C 188.73,127.2 186.11,127.01 184.68,126.46 183.24,125.91 182.52,124.54 182.52,122.35 182.52,122.35 182.91,121.27 183.69,119.12 184.46,116.96 185.28,115.09 186.13,113.48 187.37,111.03 188.36,109.56 189.1,109.05 189.83,108.54 191.94,107.87 195.43,107.02 L 216.83,101.32 C 222.57,99.72 226.56,98.92 228.81,98.92 Z M 228.81,98.92" />
</svg>
