<?xml version="1.0" encoding="UTF-8"?>
<!DOCTYPE svg PUBLIC "-//W3C//DTD SVG 1.1//EN" "http://www.w3.org/Graphics/SVG/1.1/DTD/svg11.dtd">
<svg version="1.1" xmlns="http://www.w3.org/2000/svg" xmlns:xlink="http://www.w3.org/1999/xlink" width="300" height="200"  xml:space="preserve">
    <defs>
        <filter id="shadow2-outer" filterUnits="userSpaceOnUse">
            <feGaussianBlur stdDeviation="2.5" />
            <feOffset dx="4.1" dy="5.1" result="blur" />
            <feFlood flood-color="rgb(0, 0, 0)" flood-opacity="1" />
            <feComposite in2="blur" operator="in" result="colorShadow" />
            <feComposite in="SourceGraphic" in2="colorShadow" operator="over" />
        </filter>
    </defs>
    <path id="text" stroke="none" fill="rgb(0, 0, 0)" filter="url(#shadow2-outer)" d="M 49.86,187.68 C 53.22,183.14 56.95,179.73 61.05,177.46 65.15,175.19 69.35,173.33 73.66,171.89 77.97,170.44 82.27,169.05 86.58,167.7 90.89,166.36 95.15,164.14 99.35,161.04 101.66,159.8 104.92,157.95 109.12,155.47 113.33,152.99 117.48,150.25 121.58,147.26 125.68,144.26 129.25,141.32 132.3,138.43 135.34,135.54 136.87,133.06 136.87,130.99 136.87,130.79 136.76,130.68 136.55,130.68 136.13,130.68 135.92,130.58 135.92,130.38 L 135.29,129.76 C 134.24,129.34 132.56,128.83 130.25,128.21 127.93,127.59 126.57,127.17 126.15,126.97 99.04,123.87 77.23,121.13 60.73,118.76 44.23,116.38 31.52,113.85 22.59,111.17 13.65,108.48 7.72,105.39 4.77,101.88 1.83,98.36 0.36,93.92 0.36,88.55 0.36,86.49 0.78,84.22 1.62,81.74 2.46,79.26 3.46,76.78 4.62,74.3 5.77,71.83 6.98,69.55 8.24,67.49 9.5,65.42 10.66,63.77 11.71,62.53 15.07,58.4 19.49,54.69 24.95,51.38 30.41,48.08 36.3,45.19 42.6,42.71 48.91,40.23 55.27,38.06 61.68,36.2 68.09,34.34 73.92,32.69 79.17,31.24 85.06,30.83 91,29.44 96.99,27.06 102.98,24.69 108.91,23.09 114.8,22.26 117.74,22.26 120.16,23.4 122.05,25.67 123.94,27.94 124.89,30.32 124.89,32.79 124.89,36.3 124.2,38.94 122.84,40.69 121.47,42.45 119.69,43.79 117.48,44.72 115.27,45.65 112.8,46.37 110.07,46.89 107.34,47.41 104.61,47.97 101.87,48.59 100.19,49.01 97.88,49.57 94.94,50.3 92,51.02 89.05,51.79 86.11,52.62 83.17,53.45 80.54,54.17 78.23,54.79 75.92,55.41 74.55,55.82 74.13,56.03 67.61,58.71 61.47,61.24 55.69,63.62 49.91,65.99 44.86,68.42 40.56,70.9 36.25,73.38 32.88,76.01 30.47,78.8 28.05,81.58 26.95,84.63 27.16,87.93 L 27.16,88.24 C 29.26,91.14 33.99,93.3 41.34,94.75 48.7,96.2 57.37,97.43 67.35,98.47 77.34,99.5 87.84,100.53 98.88,101.57 109.91,102.6 120.05,104.15 129.3,106.21 138.55,108.28 146.22,111.07 152.32,114.58 158.41,118.09 161.56,122.84 161.77,128.83 161.77,131.1 161.3,133.78 160.35,136.88 159.41,139.98 158.09,142.35 156.41,144.01 151.16,149.79 144.91,155.78 137.66,161.97 130.4,168.17 122.58,173.9 114.17,179.17 105.76,184.43 97.09,188.87 88.16,192.49 79.23,196.1 70.45,198.22 61.84,198.84 58.89,198.84 56.16,197.75 53.64,195.58 51.12,193.42 49.86,190.78 49.86,187.68 Z M 179.11,121.7 C 179.11,119.84 179.37,118.29 179.9,117.05 180.43,115.82 181.06,114.63 181.79,113.49 182.53,112.36 183.16,111.22 183.68,110.08 184.21,108.95 184.47,107.55 184.47,105.9 184.47,99.71 184.05,93.56 183.21,87.47 182.37,81.38 181.48,75.23 180.53,69.04 179.59,62.84 178.69,56.7 177.85,50.61 177.01,44.51 176.59,38.37 176.59,32.17 176.59,27.84 177.38,24.84 178.95,23.19 180.53,21.54 183.63,20.71 188.25,20.71 191.83,20.71 194.82,21.59 197.24,23.35 199.66,25.1 202.02,27.32 204.33,30.01 L 205.91,30.01 C 207.38,29.18 210.11,27.63 214.11,25.36 218.1,23.09 222.36,20.71 226.87,18.23 231.39,15.76 235.7,13.43 239.8,11.26 243.9,9.1 246.79,7.5 248.47,6.46 252.04,4.6 255.51,3.05 258.87,1.82 262.24,0.58 265.91,-0.04 269.91,-0.04 272.01,-0.04 273.59,0.27 274.64,0.89 275.69,1.51 276.21,3.16 276.21,5.84 L 276.21,6.46 C 275.37,10.59 273.9,13.95 271.8,16.53 269.7,19.11 267.23,21.33 264.39,23.19 261.55,25.05 258.61,26.65 255.56,27.99 252.52,29.33 249.63,30.83 246.89,32.48 240.59,36.82 235.28,40.33 230.97,43.02 226.66,45.7 222.99,47.87 219.94,49.52 216.89,51.17 214.47,52.57 212.69,53.7 210.9,54.84 209.48,56.03 208.43,57.27 208.43,57.89 208.38,59.07 208.27,60.83 208.17,62.58 208.12,63.67 208.12,64.08 208.12,70.28 208.22,76.47 208.43,82.67 208.64,88.86 209.9,94.85 212.21,100.64 L 285.67,66.56 C 287.14,65.94 288.24,65.58 288.98,65.48 289.72,65.37 290.82,65.32 292.29,65.32 293.13,65.32 294.5,65.63 296.39,66.25 298.28,66.87 299.23,67.7 299.23,68.73 299.23,73.48 297.6,77.71 294.34,81.43 291.08,85.15 287.14,88.55 282.52,91.65 277.89,94.75 273.06,97.43 268.02,99.71 262.97,101.98 258.56,104.04 254.77,105.9 253.93,106.32 252.99,106.63 251.94,106.83 250.89,107.04 250.15,107.55 249.73,108.38 L 216.63,125.42 C 215.58,126.04 215,126.61 214.89,127.12 214.79,127.64 214.74,128.41 214.74,129.45 214.74,129.86 214.79,130.38 214.89,130.99 215,131.61 215.05,132.03 215.05,132.23 L 221.67,183.04 C 222.3,187.99 221.09,191.92 218.05,194.81 215,197.7 211.27,199.15 206.86,199.15 206.01,199.15 204.96,198.99 203.7,198.68 202.44,198.37 201.18,197.96 199.92,197.44 198.66,196.93 197.55,196.2 196.61,195.27 195.66,194.34 195.09,193.26 194.88,192.02 L 186.99,130.99 C 186.99,130.17 186.57,129.45 185.73,128.83 184.89,128.21 184,127.59 183.05,126.97 182.11,126.35 181.21,125.63 180.37,124.8 179.53,123.97 179.11,122.94 179.11,121.7 Z M 179.11,121.7" />
</svg>
